<?xml version="1.0" encoding="utf-8"?>
<!-- Svg Vector Icons : http://www.onlinewebfonts.com/icon -->
<!DOCTYPE svg PUBLIC "-//W3C//DTD SVG 1.1//EN" "http://www.w3.org/Graphics/SVG/1.1/DTD/svg11.dtd">
<svg version="1.1" xmlns="http://www.w3.org/2000/svg" xmlns:xlink="http://www.w3.org/1999/xlink" x="0px" y="0px" viewBox="0 0 256 256" enable-background="new 0 0 256 256" xml:space="preserve">
<metadata> Svg Vector Icons : http://www.onlinewebfonts.com/icon </metadata>
<g><g><g><g><path fill="#000000" d="M128,246c65.2,0,118-52.8,118-118c0-65.2-52.8-118-118-118C62.8,10,10,62.8,10,128C10,193.2,62.8,246,128,246z M143.1,42.3v34.4v43.6c0,8.4-6.8,15.1-15.1,15.1c-8.4,0-15.1-6.8-15.1-15.1V76.8V42.3c0-1.5,0.2-2.9,0.6-4.2c1.8-6.3,7.6-10.9,14.5-10.9c6.9,0,12.7,4.6,14.5,10.9C142.9,39.5,143.1,40.9,143.1,42.3z M102.9,40.4c0,0.6-0.1,1.3-0.1,1.9v38.5c-17.4,9.1-29.3,27.3-29.3,48.3c0,30.1,24.4,54.5,54.5,54.5c30.1,0,54.5-24.4,54.5-54.5c0-21-11.9-39.2-29.3-48.3V42.3c0-0.7,0-1.3-0.1-1.9c38.7,10.9,67.1,46.5,67.1,88.7c0,50.9-41.3,92.2-92.2,92.2c-50.9,0-92.2-41.3-92.2-92.2C35.8,86.9,64.2,51.4,102.9,40.4z"/></g></g><g></g><g></g><g></g><g></g><g></g><g></g><g></g><g></g><g></g><g></g><g></g><g></g><g></g><g></g><g></g></g></g>
</svg>